<?xml version="1.0" standalone="no"?>
<!DOCTYPE svg PUBLIC "-//W3C//DTD SVG 20010904//EN"
 "http://www.w3.org/TR/2001/REC-SVG-20010904/DTD/svg10.dtd">
<svg version="1.0" xmlns="http://www.w3.org/2000/svg"
 width="419.000000pt" height="505.000000pt" viewBox="0 0 419.000000 505.000000"
 preserveAspectRatio="xMidYMid meet">
<metadata>
Created by potrace 1.16, written by Peter Selinger 2001-2019
</metadata>
<g transform="translate(0.000000,505.000000) scale(0.100000,-0.100000)"
fill="#000000" stroke="none">
<path d="M0 2525 l0 -2525 2095 0 2095 0 0 2525 0 2525 -2095 0 -2095 0 0
-2525z m2534 2272 c431 -562 823 -1224 1019 -1722 75 -191 76 -192 38 -155
-40 40 -106 42 -177 4 -68 -36 -167 -135 -222 -224 -61 -99 -150 -216 -207
-274 -37 -37 -53 -46 -81 -46 -28 0 -39 7 -63 40 -36 50 -57 99 -45 109 5 4
34 15 65 24 142 43 277 178 281 282 2 47 -16 65 -65 65 -48 0 -89 -23 -182
-104 -38 -34 -67 -56 -63 -51 106 188 194 329 244 391 31 38 32 43 18 63 -11
15 -26 21 -50 21 -29 0 -46 -10 -91 -52 -77 -73 -198 -260 -298 -461 -124
-247 -148 -340 -102 -391 33 -37 58 -37 69 -1 17 53 79 175 89 175 5 0 9 -12
9 -28 0 -56 38 -166 65 -189 30 -26 73 -29 113 -9 28 14 118 106 162 165 l26
33 0 -54 c2 -97 50 -151 135 -152 37 -1 57 6 98 34 59 40 168 166 268 311 37
54 71 99 75 99 13 0 20 -136 15 -298 -6 -174 -19 -254 -65 -400 l-27 -83 -204
-75 c-112 -41 -206 -72 -208 -70 -2 2 67 41 154 86 87 46 171 91 186 100 l28
17 -53 36 c-78 54 -155 77 -255 77 -78 0 -93 -4 -204 -49 -155 -65 -872 -382
-882 -391 -9 -8 112 -68 154 -77 18 -3 49 7 98 31 111 56 531 228 548 224 26
-5 -308 -167 -555 -269 -13 -5 -21 -13 -18 -18 3 -5 44 -25 92 -45 l86 -37 66
34 c77 40 210 89 226 84 17 -6 -91 -73 -167 -103 -37 -15 -66 -32 -64 -37 4
-13 248 -119 263 -113 7 3 14 -1 17 -8 3 -7 48 -32 101 -56 92 -41 96 -44 80
-62 -10 -10 -22 -18 -28 -18 -6 0 -436 189 -956 419 -631 281 -966 424 -1008
433 -50 10 -74 10 -125 -1 -66 -14 -180 -68 -174 -84 1 -5 71 -45 155 -89 84
-45 151 -83 149 -85 -2 -2 -85 26 -184 63 l-180 66 -42 132 c-23 72 -41 137
-41 144 0 10 8 12 32 5 18 -4 98 -8 178 -7 126 0 152 3 202 23 31 12 68 36 82
52 41 49 43 89 11 195 -6 20 -2 23 45 29 28 4 53 5 55 3 2 -2 -3 -24 -12 -50
-21 -65 -9 -97 47 -125 66 -34 74 -31 94 35 37 115 142 289 234 385 50 52 72
49 38 -5 -103 -168 -137 -232 -152 -286 -16 -59 -16 -65 -1 -98 17 -34 40 -49
87 -56 22 -3 26 4 49 72 32 92 60 140 155 267 79 106 122 151 133 139 4 -4
-25 -69 -64 -144 -106 -204 -123 -277 -77 -331 29 -35 67 -40 113 -16 29 15
151 141 151 156 0 5 5 9 10 9 6 0 10 -15 10 -32 0 -69 64 -128 138 -128 41 0
106 25 146 55 47 36 105 114 160 217 35 64 54 89 76 98 34 14 40 30 11 30 -17
0 -18 7 -14 88 5 80 3 90 -19 122 -13 19 -35 40 -48 47 -34 17 -105 16 -139
-2 -35 -18 -79 -69 -87 -100 -3 -14 -14 -27 -25 -30 -31 -10 -102 -98 -147
-181 -43 -80 -155 -224 -181 -232 -11 -4 -13 5 -9 42 7 62 91 228 173 341 36
50 65 98 65 108 0 18 -54 57 -80 57 -40 0 -128 -56 -203 -128 -75 -73 -78 -74
-52 -32 15 25 36 56 46 69 38 48 11 91 -55 91 -48 0 -107 -36 -201 -121 -32
-30 -55 -45 -50 -34 5 11 10 41 13 66 3 41 1 49 -23 68 -33 25 -85 29 -85 6 0
-9 -41 -96 -92 -195 l-91 -179 -51 -6 c-28 -4 -71 -5 -95 -3 -45 3 -45 3 -97
92 -61 103 -77 161 -63 226 20 90 123 214 214 256 59 28 73 29 104 8 19 -14
22 -23 18 -51 -14 -81 -93 -196 -169 -246 -28 -17 -45 -34 -40 -39 13 -13 114
-22 156 -14 143 27 227 303 124 406 -97 98 -326 44 -471 -109 -82 -88 -120
-166 -120 -246 0 -71 11 -95 98 -210 36 -47 65 -89 65 -94 0 -5 -26 -15 -57
-21 -89 -19 -235 -68 -265 -90 -15 -11 -30 -20 -33 -20 -11 0 -4 236 10 332
64 427 307 959 673 1476 l45 64 216 -216 c119 -119 219 -216 223 -216 9 0 28
33 348 590 320 558 298 522 310 515 6 -3 52 -61 104 -128z m1103 -2072 c-102
-148 -224 -286 -286 -327 -110 -69 -145 -10 -81 136 19 41 25 47 43 41 68 -20
101 -17 148 14 74 50 158 186 160 261 0 30 3 26 19 -30 18 -64 18 -64 -3 -95z
m-116 69 c-47 -88 -172 -196 -197 -171 -7 7 44 83 100 151 79 95 144 109 97
20z m-1145 -150 l44 -26 -32 -60 c-43 -78 -113 -166 -143 -180 -30 -13 -55 -4
-55 20 0 29 122 272 137 272 2 0 24 -12 49 -26z m-1376 -232 c0 -57 -86 -102
-194 -102 -74 0 -96 11 -76 35 18 21 66 41 170 70 107 30 100 30 100 -3z m387
-608 c164 -55 408 -162 561 -246 50 -28 91 -53 89 -55 -12 -11 -362 134 -547
228 -180 91 -201 106 -103 73z m2006 -255 c-10 -17 -23 -34 -28 -39 -14 -11
-447 -181 -451 -177 -4 3 476 245 489 246 5 1 0 -13 -10 -30z m-1170 -375
c152 -58 396 -179 384 -190 -8 -8 -210 68 -320 120 -118 55 -221 115 -199 116
7 0 68 -21 135 -46z m1457 -444 c0 -7 -522 -10 -1545 -10 -1023 0 -1545 3
-1545 10 0 7 522 10 1545 10 1023 0 1545 -3 1545 -10z m-2735 -170 c11 -12 19
-37 19 -63 1 -38 -1 -42 -24 -42 -21 0 -26 6 -30 35 -4 27 -10 36 -27 38 -23
3 -23 3 -23 -132 l0 -136 24 0 c22 0 25 5 28 43 3 37 6 42 28 42 21 0 26 -5
28 -34 7 -71 -43 -122 -105 -106 -60 14 -63 24 -63 187 0 135 2 150 20 168 28
28 100 28 125 0z m185 14 c0 -8 50 -316 55 -342 5 -19 1 -22 -24 -22 -29 0
-41 14 -41 51 0 15 -7 19 -35 19 -28 0 -35 -4 -35 -19 0 -35 -12 -51 -37 -51
-23 0 -25 3 -20 33 4 17 16 95 28 172 11 77 23 146 25 153 3 12 84 18 84 6z
m234 -15 c22 -18 26 -28 26 -74 0 -35 -5 -59 -16 -69 -14 -14 -14 -18 0 -38
11 -15 16 -45 16 -96 l0 -73 -27 3 c-27 3 -28 5 -31 68 -3 65 -14 90 -38 90
-11 0 -14 -19 -14 -80 l0 -80 -30 0 -30 0 0 185 0 185 59 0 c44 0 65 -5 85
-21z m168 -76 l26 -98 1 98 1 97 30 0 30 0 0 -185 0 -185 -33 0 -33 0 -29 115
c-16 63 -33 115 -37 115 -5 0 -8 -52 -8 -115 l0 -115 -25 0 -25 0 0 185 0 185
38 0 37 0 27 -97z m288 72 c0 -23 -3 -25 -50 -25 l-50 0 0 -50 0 -50 41 0 c38
0 40 -1 37 -27 -3 -24 -8 -28 -40 -31 l-38 -3 0 -55 0 -54 50 0 c47 0 50 -2
50 -25 0 -25 -1 -25 -80 -25 l-80 0 0 185 0 185 80 0 c79 0 80 0 80 -25z m271
-145 c35 -211 35 -200 0 -200 -26 0 -30 4 -33 32 -3 28 -7 34 -32 36 -31 4
-46 -10 -46 -45 0 -19 -6 -23 -31 -23 -24 0 -29 3 -25 18 3 9 15 76 26 147 36
231 27 206 73 203 l41 -3 27 -165z m119 95 l0 -75 30 0 30 0 0 75 0 75 30 0
30 0 0 -185 0 -185 -30 0 -30 0 0 80 0 80 -30 0 -30 0 0 -80 0 -80 -30 0 -30
0 0 185 0 185 30 0 30 0 0 -75z m222 -82 l3 -158 25 0 25 0 3 158 3 157 30 0
30 0 -3 -165 c-3 -155 -4 -166 -26 -187 -31 -31 -93 -31 -124 0 -22 21 -23 32
-26 187 l-3 165 30 0 30 0 3 -157z m242 140 c3 -10 10 -62 17 -115 7 -54 15
-98 19 -98 3 0 13 51 21 113 l14 112 43 3 42 3 0 -185 0 -186 -25 0 -25 0 0
112 c0 61 -3 108 -7 104 -5 -4 -15 -53 -23 -109 -15 -98 -16 -102 -41 -105
-26 -3 -27 -2 -43 105 -9 59 -19 109 -21 112 -3 2 -5 -46 -5 -107 l0 -112 -25
0 -25 0 0 185 0 185 39 0 c29 0 41 -5 45 -17z m330 -10 c6 -29 56 -332 56
-339 0 -2 -13 -4 -29 -4 -25 0 -30 5 -35 36 -7 32 -10 35 -39 32 -27 -2 -33
-8 -37 -33 -4 -24 -11 -31 -33 -33 -27 -3 -28 -2 -23 30 4 18 15 89 26 158 32
197 26 180 70 180 34 0 39 -3 44 -27z m239 2 c21 -36 25 -59 26 -161 1 -108
-10 -159 -39 -174 -10 -6 -46 -10 -79 -10 l-61 0 0 186 0 186 71 -4 c57 -3 73
-8 82 -23z m187 19 c0 -6 42 -265 55 -336 4 -25 2 -28 -25 -28 -25 0 -30 4
-36 35 -6 32 -9 35 -39 35 -31 0 -34 -3 -37 -32 -2 -28 -8 -34 -30 -36 -16 -2
-28 0 -28 4 0 10 49 314 55 342 5 18 12 22 45 22 22 0 40 -3 40 -6z"/>
<path d="M2265 3944 c-159 -106 -341 -251 -429 -343 -39 -40 -41 -41 -92 -35
-77 9 -119 -2 -163 -44 -36 -34 -61 -85 -48 -98 3 -3 19 2 36 10 27 14 121 23
121 11 0 -2 -20 -34 -45 -71 -86 -129 -96 -221 -31 -281 20 -18 40 -33 45 -33
6 0 35 49 66 109 30 59 75 139 100 177 l44 69 89 0 89 0 -34 -99 c-18 -55 -39
-129 -45 -166 -10 -59 -9 -70 8 -105 17 -35 78 -84 89 -73 3 3 25 75 50 160
81 283 198 587 293 758 59 107 57 101 41 111 -38 24 -84 9 -184 -57z m9 -111
c-34 -53 -132 -218 -160 -273 l-29 -55 -55 -3 c-74 -3 -89 7 -65 44 39 60 299
314 321 314 4 0 -2 -12 -12 -27z"/>
<path d="M2634 3994 c-48 -25 -82 -64 -159 -179 -131 -196 -265 -490 -265
-580 0 -46 23 -91 51 -98 34 -9 71 16 140 93 l64 70 -3 -54 c-2 -30 1 -64 8
-76 17 -32 55 -43 89 -25 32 16 117 106 160 169 42 61 151 253 151 265 0 26
-20 3 -98 -113 -91 -135 -175 -235 -184 -220 -23 36 236 534 349 672 l37 45
-27 23 c-16 13 -34 20 -46 17 -66 -17 -192 -186 -307 -413 -42 -84 -179 -282
-224 -325 -29 -27 -30 -28 -30 -7 0 74 210 476 337 645 36 48 42 61 32 73 -24
29 -44 33 -75 18z"/>
<path d="M3150 395 c0 -128 1 -135 20 -135 31 0 40 31 40 135 0 104 -9 135
-40 135 -19 0 -20 -7 -20 -135z"/>
</g>
</svg>
