<?xml version="1.0" standalone="no"?>
<!DOCTYPE svg PUBLIC "-//W3C//DTD SVG 20010904//EN"
 "http://www.w3.org/TR/2001/REC-SVG-20010904/DTD/svg10.dtd">
<svg version="1.0" xmlns="http://www.w3.org/2000/svg"
 width="533.000000pt" height="541.000000pt" viewBox="0 0 533.000000 541.000000"
 preserveAspectRatio="xMidYMid meet">
<metadata>
Created by potrace 1.16, written by Peter Selinger 2001-2019
</metadata>
<g transform="translate(0.000000,541.000000) scale(0.100000,-0.100000)"
fill="#000000" stroke="none">
<path d="M2690 5088 c-144 -251 -418 -727 -568 -988 -74 -129 -136 -237 -139
-240 -2 -2 -127 119 -278 270 -171 171 -278 271 -284 265 -24 -27 -192 -275
-260 -385 -360 -580 -576 -1115 -636 -1571 -14 -106 -21 -369 -10 -369 3 0 29
13 58 29 59 33 179 72 304 100 47 11 86 21 88 23 2 2 -18 33 -46 68 -81 105
-148 209 -159 248 -23 84 -4 172 61 273 126 196 320 308 520 298 126 -7 186
-54 209 -164 14 -68 0 -156 -39 -240 -56 -122 -119 -165 -238 -165 -70 0 -133
14 -133 31 0 5 13 15 28 23 56 29 134 110 178 185 56 95 70 143 53 182 -12 30
-25 34 -84 30 -91 -8 -230 -129 -303 -266 -37 -69 -38 -188 -3 -255 33 -63
123 -210 132 -216 4 -2 57 -1 117 2 l109 7 15 31 c8 17 58 115 111 218 53 103
97 198 97 212 0 24 3 26 46 26 37 0 51 -5 75 -29 33 -34 36 -63 14 -137 -8
-27 -15 -51 -15 -54 0 -2 14 12 30 32 52 63 190 167 245 184 46 15 54 15 88 1
20 -9 42 -27 48 -41 10 -22 7 -31 -23 -73 -20 -26 -48 -68 -63 -93 -24 -40
-18 -36 51 36 89 92 186 159 243 169 48 8 103 -13 127 -49 16 -26 16 -27 -28
-84 -140 -180 -268 -425 -268 -514 0 -15 3 -28 6 -28 32 0 175 172 224 270 18
36 50 90 71 121 39 58 113 129 134 129 7 0 17 17 23 39 16 51 87 116 143 131
90 25 172 -9 210 -86 19 -40 21 -57 16 -127 -3 -45 -8 -90 -12 -99 -6 -14 -2
-18 18 -18 43 0 41 -20 -3 -37 -36 -15 -46 -26 -77 -87 -87 -173 -190 -299
-283 -348 -65 -33 -181 -33 -229 1 -38 28 -70 90 -71 141 l-1 35 -27 -35 c-54
-70 -148 -163 -184 -181 -57 -29 -94 -25 -134 15 -29 29 -34 41 -34 79 0 85
50 213 156 397 45 80 63 130 46 130 -16 0 -125 -124 -198 -225 -76 -107 -151
-252 -169 -326 -11 -51 -14 -54 -41 -52 -50 4 -70 12 -96 38 -70 70 -36 192
123 436 38 58 69 111 69 117 0 48 -92 -46 -199 -203 -97 -142 -150 -254 -175
-366 -5 -25 -9 -26 -39 -20 -49 12 -106 41 -122 65 -19 26 -19 87 0 133 23 54
21 56 -42 48 -84 -10 -83 -9 -62 -66 39 -102 20 -187 -55 -244 -98 -75 -371
-105 -528 -58 -28 8 -52 12 -55 10 -13 -14 101 -367 118 -367 10 0 97 -32 323
-116 65 -25 120 -43 122 -41 2 2 -84 51 -193 108 -108 57 -196 109 -196 114
-1 15 101 73 158 91 88 28 184 29 265 5 39 -12 239 -97 443 -188 390 -174 628
-280 887 -393 85 -37 254 -113 375 -167 121 -55 329 -148 463 -207 l243 -108
25 23 c13 12 24 25 24 28 0 3 -26 17 -58 30 -31 13 -93 41 -137 61 -44 20
-156 70 -248 110 -92 40 -164 77 -160 81 4 4 48 24 96 44 99 43 219 116 199
122 -20 7 -140 -35 -249 -88 -56 -27 -109 -49 -117 -49 -19 0 -226 91 -226 99
0 4 69 35 153 71 157 66 547 256 582 284 16 13 10 12 -35 -3 -124 -42 -553
-222 -681 -287 l-86 -43 -112 51 c-62 28 -108 54 -104 58 4 4 208 96 453 205
732 326 807 354 912 355 69 0 181 -26 241 -56 59 -30 137 -84 137 -95 0 -4
-100 -60 -222 -124 -123 -64 -227 -121 -233 -127 -5 -5 33 6 85 25 52 19 167
61 255 92 88 32 165 63 172 69 13 12 55 142 77 239 43 185 60 393 46 574 -13
169 -15 174 -49 126 -15 -21 -56 -78 -91 -128 -146 -206 -266 -337 -347 -379
-48 -24 -132 -21 -173 6 -59 41 -74 71 -80 160 l-5 81 -39 -58 c-56 -81 -157
-182 -199 -200 -112 -47 -178 18 -211 203 -7 46 -16 85 -18 87 -7 7 -91 -168
-103 -215 -14 -52 -28 -58 -72 -31 -64 40 -65 130 -3 286 54 136 223 457 316
597 145 220 248 306 320 268 42 -23 39 -45 -13 -118 -76 -105 -293 -459 -293
-477 0 -4 38 29 84 73 93 88 170 132 228 132 52 0 78 -27 78 -82 0 -127 -178
-308 -355 -359 -38 -11 -75 -22 -82 -24 -20 -7 26 -104 73 -152 46 -49 64 -52
116 -20 61 36 232 251 313 392 23 40 76 106 125 156 104 105 185 149 275 149
51 0 60 -3 91 -34 31 -31 34 -40 34 -90 0 -75 -29 -147 -92 -230 -94 -123
-179 -161 -274 -121 l-35 15 -31 -67 c-35 -74 -48 -164 -28 -188 7 -8 25 -15
40 -15 36 0 133 65 196 131 57 60 188 225 241 306 l35 51 -27 99 c-116 427
-492 1164 -928 1818 -199 299 -565 795 -586 795 -4 0 -50 -73 -101 -162z m143
-998 c13 0 7 -20 -19 -61 -51 -82 -158 -307 -219 -463 -93 -238 -151 -415
-230 -698 -17 -62 -26 -68 -73 -44 -41 21 -59 46 -72 97 -15 60 6 178 59 329
l38 108 -71 -2 c-39 0 -87 2 -106 6 l-35 8 -62 -98 c-34 -53 -92 -154 -128
-224 -37 -71 -71 -128 -76 -128 -23 0 -69 32 -91 62 -52 73 -20 201 87 355 25
35 45 67 45 70 0 11 -118 -6 -160 -23 -22 -9 -43 -14 -47 -11 -9 10 15 67 43
105 43 55 101 75 203 70 l86 -5 106 101 c122 117 296 254 458 363 132 89 169
104 220 92 20 -5 39 -9 44 -9z m288 0 c5 0 16 -11 24 -24 15 -23 14 -26 -37
-94 -179 -239 -478 -832 -419 -832 31 0 228 278 318 450 215 411 388 591 453
470 8 -15 0 -32 -46 -97 -82 -115 -206 -326 -294 -503 -113 -226 -151 -328
-117 -318 22 8 120 132 226 287 71 105 107 149 114 142 11 -11 -78 -180 -171
-319 -68 -104 -186 -228 -226 -238 -76 -19 -121 41 -111 146 l6 64 -50 -65
c-113 -150 -197 -186 -249 -109 -51 75 -13 213 143 519 170 334 341 551 413
526 8 -3 18 -5 23 -5z"/>
<path d="M2545 3859 c-94 -80 -201 -186 -281 -282 -41 -48 -74 -90 -74 -92 0
-10 113 -25 143 -20 32 6 39 15 83 98 50 97 107 196 168 290 20 31 33 57 29
57 -4 -1 -35 -24 -68 -51z"/>
<path d="M2808 2673 c-48 -49 -62 -87 -48 -127 11 -31 47 -76 62 -76 23 0 74
173 64 215 -9 36 -36 31 -78 -12z"/>
<path d="M4123 2637 c-46 -33 -97 -92 -153 -175 -55 -81 -59 -92 -32 -92 47 0
133 78 203 184 59 90 50 133 -18 83z"/>
<path d="M2603 2323 c-115 -216 -131 -287 -59 -269 48 12 150 136 210 253 14
29 26 54 26 57 0 4 -106 66 -114 66 -3 0 -31 -48 -63 -107z"/>
<path d="M880 2106 c-242 -68 -291 -134 -91 -124 136 7 221 55 221 125 0 18
-3 33 -7 32 -5 0 -60 -15 -123 -33z"/>
<path d="M1450 1344 c162 -96 590 -288 805 -360 228 -77 -361 210 -665 324
-173 64 -196 70 -140 36z"/>
<path d="M3698 909 c-175 -87 -318 -161 -318 -163 0 -2 51 16 113 40 61 25
193 77 292 115 179 70 180 71 213 120 17 27 29 49 25 48 -5 0 -151 -72 -325
-160z"/>
<path d="M1530 1051 c0 -32 363 -191 386 -168 7 7 -84 62 -166 101 -78 37
-220 80 -220 67z"/>
<path d="M900 1022 c0 -15 50 -77 68 -84 284 -112 477 -187 479 -184 3 3 -533
276 -542 276 -3 0 -5 -4 -5 -8z"/>
<path d="M2955 633 c6 -6 100 -56 211 -113 l201 -103 27 18 c15 10 23 21 19
26 -8 8 -112 48 -448 174 -13 5 -17 5 -10 -2z"/>
<path d="M2350 616 c0 -8 196 -113 296 -159 154 -70 402 -160 378 -137 -19 17
-239 134 -327 172 -78 35 -329 128 -342 128 -3 0 -5 -2 -5 -4z"/>
<path d="M1860 396 c0 -6 159 -95 230 -129 55 -26 172 -52 206 -45 10 2 -36
26 -102 55 -173 75 -334 132 -334 119z"/>
</g>
</svg>
